M48
; DRILL file {KiCad 9.0.2+dfsg-1} date 2026-05-16T12:57:21+0200
; FORMAT={-:-/ absolute / metric / decimal}
; #@! TF.CreationDate,2026-05-16T12:57:21+02:00
; #@! TF.GenerationSoftware,Kicad,Pcbnew,9.0.2+dfsg-1
; #@! TF.FileFunction,Plated,1,2,PTH
FMAT,2
METRIC
; #@! TA.AperFunction,Plated,PTH,ViaDrill
T1C0.300
; #@! TA.AperFunction,Plated,PTH,ComponentDrill
T2C0.800
; #@! TA.AperFunction,Plated,PTH,ComponentDrill
T3C0.900
; #@! TA.AperFunction,Plated,PTH,ComponentDrill
T4C1.100
; #@! TA.AperFunction,Plated,PTH,ComponentDrill
T5C1.300
%
G90
G05
T1
X177.453Y-89.861
X181.719Y-60.818
X185.639Y-107.243
X203.747Y-77.363
X204.679Y-77.809
X217.235Y-66.025
X223.558Y-63.689
X224.034Y-84.969
T2
X172.88Y-52.5
X173.08Y-104.92
X173.08Y-115.08
X173.26Y-59.0
X173.26Y-66.62
X173.26Y-86.0
X173.26Y-93.62
X173.892Y-121.147
X173.892Y-128.767
X175.8Y-59.0
X175.8Y-66.62
X175.8Y-86.0
X175.8Y-93.62
X176.433Y-121.147
X176.433Y-128.767
X178.34Y-59.0
X178.34Y-66.62
X178.34Y-86.0
X178.34Y-93.62
X178.972Y-121.147
X178.972Y-128.767
X179.517Y-104.92
X179.517Y-115.08
X180.5Y-52.5
X180.88Y-59.0
X180.88Y-66.62
X180.88Y-86.0
X180.88Y-93.62
X181.512Y-121.147
X181.512Y-128.767
X183.42Y-59.0
X183.42Y-66.62
X183.42Y-86.0
X183.42Y-93.62
X185.955Y-104.92
X185.955Y-115.08
X185.96Y-59.0
X185.96Y-66.62
X185.96Y-86.0
X185.96Y-93.62
X188.5Y-59.0
X188.5Y-66.62
X188.5Y-86.0
X188.5Y-93.62
X191.0Y-36.46
X191.0Y-46.62
X192.392Y-104.92
X192.392Y-115.08
X198.34Y-73.38
X198.34Y-81.0
X198.83Y-104.92
X198.83Y-115.08
X199.892Y-121.147
X199.892Y-128.767
X200.88Y-73.38
X200.88Y-81.0
X202.433Y-121.147
X202.433Y-128.767
X202.498Y-36.46
X202.498Y-46.62
X203.42Y-73.38
X203.42Y-81.0
X203.46Y-97.5
X204.972Y-121.147
X204.972Y-128.767
X205.267Y-104.92
X205.267Y-115.08
X205.96Y-73.38
X205.96Y-81.0
X207.512Y-121.147
X207.512Y-128.767
X208.46Y-97.5
X208.5Y-73.38
X208.5Y-81.0
X211.04Y-73.38
X211.04Y-81.0
X211.705Y-104.92
X211.705Y-115.08
X213.58Y-73.38
X213.58Y-81.0
X213.997Y-36.46
X213.997Y-46.62
X218.142Y-104.92
X218.142Y-115.08
X222.8Y-59.0
X222.8Y-66.62
X222.8Y-86.0
X222.8Y-93.62
X224.512Y-121.147
X224.512Y-128.767
X224.58Y-104.92
X224.58Y-115.08
X225.34Y-59.0
X225.34Y-66.62
X225.34Y-86.0
X225.34Y-93.62
X225.495Y-36.46
X225.495Y-46.62
X227.88Y-59.0
X227.88Y-66.62
X227.88Y-86.0
X227.88Y-93.62
X230.42Y-59.0
X230.42Y-66.62
X230.42Y-86.0
X230.42Y-93.62
X232.96Y-59.0
X232.96Y-66.62
X232.96Y-86.0
X232.96Y-93.62
X235.5Y-59.0
X235.5Y-66.62
X235.5Y-86.0
X235.5Y-93.62
X235.885Y-109.328
X236.993Y-36.46
X236.993Y-46.62
X238.04Y-59.0
X238.04Y-66.62
X238.04Y-86.0
X238.04Y-93.62
X238.385Y-109.328
X247.42Y-95.0
X247.42Y-100.0
X254.92Y-95.0
X254.92Y-100.0
T3
X191.007Y-51.46
X191.007Y-54.0
X202.505Y-51.46
X202.505Y-54.0
X214.003Y-51.46
X214.003Y-54.0
X225.502Y-51.46
X225.502Y-54.0
X237.0Y-51.46
X237.0Y-54.0
T4
X248.42Y-107.96
X250.96Y-107.96
X253.5Y-107.96
T5
X170.42Y-39.5
X175.5Y-39.5
X247.92Y-123.5
X253.0Y-123.5
M30
