%TF.GenerationSoftware,KiCad,Pcbnew,9.0.2+dfsg-1*%
%TF.CreationDate,2026-05-16T12:45:58+02:00*%
%TF.ProjectId,4 bit Full Adder 74HC,34206269-7420-4467-956c-6c2041646465,rev?*%
%TF.SameCoordinates,Original*%
%TF.FileFunction,Soldermask,Bot*%
%TF.FilePolarity,Negative*%
%FSLAX46Y46*%
G04 Gerber Fmt 4.6, Leading zero omitted, Abs format (unit mm)*
G04 Created by KiCad (PCBNEW 9.0.2+dfsg-1) date 2026-05-16 12:45:58*
%MOMM*%
%LPD*%
G01*
G04 APERTURE LIST*
G04 Aperture macros list*
%AMRoundRect*
0 Rectangle with rounded corners*
0 $1 Rounding radius*
0 $2 $3 $4 $5 $6 $7 $8 $9 X,Y pos of 4 corners*
0 Add a 4 corners polygon primitive as box body*
4,1,4,$2,$3,$4,$5,$6,$7,$8,$9,$2,$3,0*
0 Add four circle primitives for the rounded corners*
1,1,$1+$1,$2,$3*
1,1,$1+$1,$4,$5*
1,1,$1+$1,$6,$7*
1,1,$1+$1,$8,$9*
0 Add four rect primitives between the rounded corners*
20,1,$1+$1,$2,$3,$4,$5,0*
20,1,$1+$1,$4,$5,$6,$7,0*
20,1,$1+$1,$6,$7,$8,$9,0*
20,1,$1+$1,$8,$9,$2,$3,0*%
G04 Aperture macros list end*
%ADD10C,1.600000*%
%ADD11RoundRect,0.250000X0.550000X-0.950000X0.550000X0.950000X-0.550000X0.950000X-0.550000X-0.950000X0*%
%ADD12O,1.600000X2.400000*%
%ADD13RoundRect,0.250000X1.050000X1.050000X-1.050000X1.050000X-1.050000X-1.050000X1.050000X-1.050000X0*%
%ADD14C,2.600000*%
%ADD15R,1.800000X1.800000*%
%ADD16C,1.800000*%
%ADD17R,1.905000X2.000000*%
%ADD18O,1.905000X2.000000*%
%ADD19RoundRect,0.250000X0.550000X-0.550000X0.550000X0.550000X-0.550000X0.550000X-0.550000X-0.550000X0*%
%ADD20RoundRect,0.250000X-1.050000X-1.050000X1.050000X-1.050000X1.050000X1.050000X-1.050000X1.050000X0*%
%ADD21RoundRect,0.250000X-0.550000X-0.550000X0.550000X-0.550000X0.550000X0.550000X-0.550000X0.550000X0*%
G04 APERTURE END LIST*
D10*
%TO.C,R14*%
X191000000Y-36460000D03*
X191000000Y-46620000D03*
%TD*%
%TO.C,R9*%
X218142500Y-115080000D03*
X218142500Y-104920000D03*
%TD*%
D11*
%TO.C,U2*%
X222800000Y-66620000D03*
D12*
X225340000Y-66620000D03*
X227880000Y-66620000D03*
X230420000Y-66620000D03*
X232960000Y-66620000D03*
X235500000Y-66620000D03*
X238040000Y-66620000D03*
X238040000Y-59000000D03*
X235500000Y-59000000D03*
X232960000Y-59000000D03*
X230420000Y-59000000D03*
X227880000Y-59000000D03*
X225340000Y-59000000D03*
X222800000Y-59000000D03*
%TD*%
D10*
%TO.C,R8*%
X211705000Y-115080000D03*
X211705000Y-104920000D03*
%TD*%
%TO.C,R2*%
X173080000Y-115080000D03*
X173080000Y-104920000D03*
%TD*%
%TO.C,C3*%
X247420000Y-95000000D03*
X247420000Y-100000000D03*
%TD*%
D13*
%TO.C,J2*%
X175500000Y-39500000D03*
D14*
X170420000Y-39500000D03*
%TD*%
D15*
%TO.C,D3*%
X214003400Y-51460000D03*
D16*
X214003400Y-54000000D03*
%TD*%
D15*
%TO.C,D5*%
X191006700Y-51460000D03*
D16*
X191006700Y-54000000D03*
%TD*%
D11*
%TO.C,U3*%
X173260000Y-93620000D03*
D12*
X175800000Y-93620000D03*
X178340000Y-93620000D03*
X180880000Y-93620000D03*
X183420000Y-93620000D03*
X185960000Y-93620000D03*
X188500000Y-93620000D03*
X188500000Y-86000000D03*
X185960000Y-86000000D03*
X183420000Y-86000000D03*
X180880000Y-86000000D03*
X178340000Y-86000000D03*
X175800000Y-86000000D03*
X173260000Y-86000000D03*
%TD*%
D15*
%TO.C,D1*%
X237000000Y-51460000D03*
D16*
X237000000Y-54000000D03*
%TD*%
D10*
%TO.C,R4*%
X185955000Y-115080000D03*
X185955000Y-104920000D03*
%TD*%
%TO.C,R10*%
X236993300Y-36460000D03*
X236993300Y-46620000D03*
%TD*%
%TO.C,R6*%
X198830000Y-115080000D03*
X198830000Y-104920000D03*
%TD*%
%TO.C,R11*%
X225495000Y-36460000D03*
X225495000Y-46620000D03*
%TD*%
D17*
%TO.C,U4*%
X253500000Y-107960000D03*
D18*
X250960000Y-107960000D03*
X248420000Y-107960000D03*
%TD*%
D15*
%TO.C,D4*%
X202505000Y-51460000D03*
D16*
X202505000Y-54000000D03*
%TD*%
D10*
%TO.C,R12*%
X213996700Y-36460000D03*
X213996700Y-46620000D03*
%TD*%
D11*
%TO.C,U6*%
X198340000Y-81000000D03*
D12*
X200880000Y-81000000D03*
X203420000Y-81000000D03*
X205960000Y-81000000D03*
X208500000Y-81000000D03*
X211040000Y-81000000D03*
X213580000Y-81000000D03*
X213580000Y-73380000D03*
X211040000Y-73380000D03*
X208500000Y-73380000D03*
X205960000Y-73380000D03*
X203420000Y-73380000D03*
X200880000Y-73380000D03*
X198340000Y-73380000D03*
%TD*%
D11*
%TO.C,U1*%
X222800000Y-93620000D03*
D12*
X225340000Y-93620000D03*
X227880000Y-93620000D03*
X230420000Y-93620000D03*
X232960000Y-93620000D03*
X235500000Y-93620000D03*
X238040000Y-93620000D03*
X238040000Y-86000000D03*
X235500000Y-86000000D03*
X232960000Y-86000000D03*
X230420000Y-86000000D03*
X227880000Y-86000000D03*
X225340000Y-86000000D03*
X222800000Y-86000000D03*
%TD*%
D10*
%TO.C,R13*%
X202498300Y-36460000D03*
X202498300Y-46620000D03*
%TD*%
D15*
%TO.C,D2*%
X225501700Y-51460000D03*
D16*
X225501700Y-54000000D03*
%TD*%
D10*
%TO.C,C4*%
X254920000Y-95000000D03*
X254920000Y-100000000D03*
%TD*%
D19*
%TO.C,SW3*%
X224512500Y-128767500D03*
D10*
X224512500Y-121147500D03*
%TD*%
%TO.C,R3*%
X179517500Y-115080000D03*
X179517500Y-104920000D03*
%TD*%
D20*
%TO.C,J1*%
X247920000Y-123500000D03*
D14*
X253000000Y-123500000D03*
%TD*%
D11*
%TO.C,U5*%
X173260000Y-66620000D03*
D12*
X175800000Y-66620000D03*
X178340000Y-66620000D03*
X180880000Y-66620000D03*
X183420000Y-66620000D03*
X185960000Y-66620000D03*
X188500000Y-66620000D03*
X188500000Y-59000000D03*
X185960000Y-59000000D03*
X183420000Y-59000000D03*
X180880000Y-59000000D03*
X178340000Y-59000000D03*
X175800000Y-59000000D03*
X173260000Y-59000000D03*
%TD*%
D21*
%TO.C,D6*%
X172880000Y-52500000D03*
D10*
X180500000Y-52500000D03*
%TD*%
%TO.C,R7*%
X205267500Y-115080000D03*
X205267500Y-104920000D03*
%TD*%
D19*
%TO.C,SW1*%
X173892500Y-128767500D03*
D10*
X176432500Y-128767500D03*
X178972500Y-128767500D03*
X181512500Y-128767500D03*
X181512500Y-121147500D03*
X178972500Y-121147500D03*
X176432500Y-121147500D03*
X173892500Y-121147500D03*
%TD*%
%TO.C,C2*%
X203460000Y-97500000D03*
X208460000Y-97500000D03*
%TD*%
%TO.C,R5*%
X192392500Y-115080000D03*
X192392500Y-104920000D03*
%TD*%
%TO.C,R1*%
X224580000Y-115080000D03*
X224580000Y-104920000D03*
%TD*%
D21*
%TO.C,C1*%
X235885000Y-109327500D03*
D10*
X238385000Y-109327500D03*
%TD*%
D19*
%TO.C,SW2*%
X199892500Y-128767500D03*
D10*
X202432500Y-128767500D03*
X204972500Y-128767500D03*
X207512500Y-128767500D03*
X207512500Y-121147500D03*
X204972500Y-121147500D03*
X202432500Y-121147500D03*
X199892500Y-121147500D03*
%TD*%
M02*
