%TF.GenerationSoftware,KiCad,Pcbnew,9.0.2+dfsg-1*%
%TF.CreationDate,2026-05-16T12:45:57+02:00*%
%TF.ProjectId,4 bit Full Adder 74HC,34206269-7420-4467-956c-6c2041646465,rev?*%
%TF.SameCoordinates,Original*%
%TF.FileFunction,Copper,L1,Top*%
%TF.FilePolarity,Positive*%
%FSLAX46Y46*%
G04 Gerber Fmt 4.6, Leading zero omitted, Abs format (unit mm)*
G04 Created by KiCad (PCBNEW 9.0.2+dfsg-1) date 2026-05-16 12:45:57*
%MOMM*%
%LPD*%
G01*
G04 APERTURE LIST*
G04 Aperture macros list*
%AMRoundRect*
0 Rectangle with rounded corners*
0 $1 Rounding radius*
0 $2 $3 $4 $5 $6 $7 $8 $9 X,Y pos of 4 corners*
0 Add a 4 corners polygon primitive as box body*
4,1,4,$2,$3,$4,$5,$6,$7,$8,$9,$2,$3,0*
0 Add four circle primitives for the rounded corners*
1,1,$1+$1,$2,$3*
1,1,$1+$1,$4,$5*
1,1,$1+$1,$6,$7*
1,1,$1+$1,$8,$9*
0 Add four rect primitives between the rounded corners*
20,1,$1+$1,$2,$3,$4,$5,0*
20,1,$1+$1,$4,$5,$6,$7,0*
20,1,$1+$1,$6,$7,$8,$9,0*
20,1,$1+$1,$8,$9,$2,$3,0*%
G04 Aperture macros list end*
%TA.AperFunction,ComponentPad*%
%ADD10C,1.600000*%
%TD*%
%TA.AperFunction,ComponentPad*%
%ADD11RoundRect,0.250000X0.550000X-0.950000X0.550000X0.950000X-0.550000X0.950000X-0.550000X-0.950000X0*%
%TD*%
%TA.AperFunction,ComponentPad*%
%ADD12O,1.600000X2.400000*%
%TD*%
%TA.AperFunction,ComponentPad*%
%ADD13RoundRect,0.250000X1.050000X1.050000X-1.050000X1.050000X-1.050000X-1.050000X1.050000X-1.050000X0*%
%TD*%
%TA.AperFunction,ComponentPad*%
%ADD14C,2.600000*%
%TD*%
%TA.AperFunction,ComponentPad*%
%ADD15R,1.800000X1.800000*%
%TD*%
%TA.AperFunction,ComponentPad*%
%ADD16C,1.800000*%
%TD*%
%TA.AperFunction,ComponentPad*%
%ADD17R,1.905000X2.000000*%
%TD*%
%TA.AperFunction,ComponentPad*%
%ADD18O,1.905000X2.000000*%
%TD*%
%TA.AperFunction,ComponentPad*%
%ADD19RoundRect,0.250000X0.550000X-0.550000X0.550000X0.550000X-0.550000X0.550000X-0.550000X-0.550000X0*%
%TD*%
%TA.AperFunction,ComponentPad*%
%ADD20RoundRect,0.250000X-1.050000X-1.050000X1.050000X-1.050000X1.050000X1.050000X-1.050000X1.050000X0*%
%TD*%
%TA.AperFunction,ComponentPad*%
%ADD21RoundRect,0.250000X-0.550000X-0.550000X0.550000X-0.550000X0.550000X0.550000X-0.550000X0.550000X0*%
%TD*%
%TA.AperFunction,ViaPad*%
%ADD22C,0.600000*%
%TD*%
%TA.AperFunction,Conductor*%
%ADD23C,0.400000*%
%TD*%
G04 APERTURE END LIST*
D10*
%TO.P,R14,1*%
%TO.N,Net-(D5-K)*%
X191000000Y-36460000D03*
%TO.P,R14,2*%
%TO.N,GND*%
X191000000Y-46620000D03*
%TD*%
%TO.P,R9,1*%
%TO.N,Net-(R9-Pad1)*%
X218142500Y-115080000D03*
%TO.P,R9,2*%
%TO.N,GND*%
X218142500Y-104920000D03*
%TD*%
D11*
%TO.P,U2,1*%
%TO.N,Net-(U1-Pad3)*%
X222800000Y-66620000D03*
D12*
%TO.P,U2,2*%
%TO.N,Net-(U2-Pad2)*%
X225340000Y-66620000D03*
%TO.P,U2,3*%
%TO.N,Net-(D4-A)*%
X227880000Y-66620000D03*
%TO.P,U2,4*%
%TO.N,Net-(U1-Pad6)*%
X230420000Y-66620000D03*
%TO.P,U2,5*%
%TO.N,Net-(U2-Pad5)*%
X232960000Y-66620000D03*
%TO.P,U2,6*%
%TO.N,Net-(D3-A)*%
X235500000Y-66620000D03*
%TO.P,U2,7,GND*%
%TO.N,GND*%
X238040000Y-66620000D03*
%TO.P,U2,8*%
%TO.N,Net-(D2-A)*%
X238040000Y-59000000D03*
%TO.P,U2,9*%
%TO.N,Net-(U1-Pad8)*%
X235500000Y-59000000D03*
%TO.P,U2,10*%
%TO.N,Net-(U2-Pad10)*%
X232960000Y-59000000D03*
%TO.P,U2,11*%
%TO.N,Net-(D1-A)*%
X230420000Y-59000000D03*
%TO.P,U2,12*%
%TO.N,Net-(U1-Pad11)*%
X227880000Y-59000000D03*
%TO.P,U2,13*%
%TO.N,Ci*%
X225340000Y-59000000D03*
%TO.P,U2,14,VCC*%
%TO.N,+5V*%
X222800000Y-59000000D03*
%TD*%
D10*
%TO.P,R8,1*%
%TO.N,Net-(R8-Pad1)*%
X211705000Y-115080000D03*
%TO.P,R8,2*%
%TO.N,GND*%
X211705000Y-104920000D03*
%TD*%
%TO.P,R2,1*%
%TO.N,Net-(R2-Pad1)*%
X173080000Y-115080000D03*
%TO.P,R2,2*%
%TO.N,GND*%
X173080000Y-104920000D03*
%TD*%
%TO.P,C3,1*%
%TO.N,+5V*%
X247420000Y-95000000D03*
%TO.P,C3,2*%
%TO.N,GND*%
X247420000Y-100000000D03*
%TD*%
D13*
%TO.P,J2,1,Pin_1*%
%TO.N,Co*%
X175500000Y-39500000D03*
D14*
%TO.P,J2,2,Pin_2*%
%TO.N,Net-(D6-A)*%
X170420000Y-39500000D03*
%TD*%
D15*
%TO.P,D3,1,K*%
%TO.N,Net-(D3-K)*%
X214003400Y-51460000D03*
D16*
%TO.P,D3,2,A*%
%TO.N,Net-(D3-A)*%
X214003400Y-54000000D03*
%TD*%
D15*
%TO.P,D5,1,K*%
%TO.N,Net-(D5-K)*%
X191006700Y-51460000D03*
D16*
%TO.P,D5,2,A*%
%TO.N,Co*%
X191006700Y-54000000D03*
%TD*%
D11*
%TO.P,U3,1*%
%TO.N,Net-(R8-Pad1)*%
X173260000Y-93620000D03*
D12*
%TO.P,U3,2*%
%TO.N,Net-(R9-Pad1)*%
X175800000Y-93620000D03*
%TO.P,U3,3*%
%TO.N,Net-(U3-Pad3)*%
X178340000Y-93620000D03*
%TO.P,U3,4*%
%TO.N,Net-(R6-Pad1)*%
X180880000Y-93620000D03*
%TO.P,U3,5*%
%TO.N,Net-(R7-Pad1)*%
X183420000Y-93620000D03*
%TO.P,U3,6*%
%TO.N,Net-(U3-Pad6)*%
X185960000Y-93620000D03*
%TO.P,U3,7,GND*%
%TO.N,GND*%
X188500000Y-93620000D03*
%TO.P,U3,8*%
%TO.N,Net-(U3-Pad8)*%
X188500000Y-86000000D03*
%TO.P,U3,9*%
%TO.N,Net-(R4-Pad1)*%
X185960000Y-86000000D03*
%TO.P,U3,10*%
%TO.N,Net-(R5-Pad1)*%
X183420000Y-86000000D03*
%TO.P,U3,11*%
%TO.N,Net-(U3-Pad11)*%
X180880000Y-86000000D03*
%TO.P,U3,12*%
%TO.N,Net-(R2-Pad1)*%
X178340000Y-86000000D03*
%TO.P,U3,13*%
%TO.N,Net-(R3-Pad1)*%
X175800000Y-86000000D03*
%TO.P,U3,14,VCC*%
%TO.N,+5V*%
X173260000Y-86000000D03*
%TD*%
D15*
%TO.P,D1,1,K*%
%TO.N,Net-(D1-K)*%
X237000000Y-51460000D03*
D16*
%TO.P,D1,2,A*%
%TO.N,Net-(D1-A)*%
X237000000Y-54000000D03*
%TD*%
D10*
%TO.P,R4,1*%
%TO.N,Net-(R4-Pad1)*%
X185955000Y-115080000D03*
%TO.P,R4,2*%
%TO.N,GND*%
X185955000Y-104920000D03*
%TD*%
%TO.P,R10,1*%
%TO.N,Net-(D1-K)*%
X236993300Y-36460000D03*
%TO.P,R10,2*%
%TO.N,GND*%
X236993300Y-46620000D03*
%TD*%
%TO.P,R6,1*%
%TO.N,Net-(R6-Pad1)*%
X198830000Y-115080000D03*
%TO.P,R6,2*%
%TO.N,GND*%
X198830000Y-104920000D03*
%TD*%
%TO.P,R11,1*%
%TO.N,Net-(D2-K)*%
X225495000Y-36460000D03*
%TO.P,R11,2*%
%TO.N,GND*%
X225495000Y-46620000D03*
%TD*%
D17*
%TO.P,U4,1,VI*%
%TO.N,Net-(J1-Pin_1)*%
X253500000Y-107960000D03*
D18*
%TO.P,U4,2,GND*%
%TO.N,GND*%
X250960000Y-107960000D03*
%TO.P,U4,3,VO*%
%TO.N,+5V*%
X248420000Y-107960000D03*
%TD*%
D15*
%TO.P,D4,1,K*%
%TO.N,Net-(D4-K)*%
X202505000Y-51460000D03*
D16*
%TO.P,D4,2,A*%
%TO.N,Net-(D4-A)*%
X202505000Y-54000000D03*
%TD*%
D10*
%TO.P,R12,1*%
%TO.N,Net-(D3-K)*%
X213996700Y-36460000D03*
%TO.P,R12,2*%
%TO.N,GND*%
X213996700Y-46620000D03*
%TD*%
D11*
%TO.P,U6,1*%
%TO.N,Net-(U1-Pad3)*%
X198340000Y-81000000D03*
D12*
%TO.P,U6,2*%
%TO.N,Net-(U2-Pad2)*%
X200880000Y-81000000D03*
%TO.P,U6,3*%
%TO.N,Net-(U5-Pad2)*%
X203420000Y-81000000D03*
%TO.P,U6,4*%
%TO.N,Net-(U1-Pad6)*%
X205960000Y-81000000D03*
%TO.P,U6,5*%
%TO.N,Net-(U2-Pad5)*%
X208500000Y-81000000D03*
%TO.P,U6,6*%
%TO.N,Net-(U5-Pad5)*%
X211040000Y-81000000D03*
%TO.P,U6,7,GND*%
%TO.N,GND*%
X213580000Y-81000000D03*
%TO.P,U6,8*%
%TO.N,Net-(U5-Pad10)*%
X213580000Y-73380000D03*
%TO.P,U6,9*%
%TO.N,Net-(U1-Pad8)*%
X211040000Y-73380000D03*
%TO.P,U6,10*%
%TO.N,Net-(U2-Pad10)*%
X208500000Y-73380000D03*
%TO.P,U6,11*%
%TO.N,Net-(U5-Pad13)*%
X205960000Y-73380000D03*
%TO.P,U6,12*%
%TO.N,Net-(U1-Pad11)*%
X203420000Y-73380000D03*
%TO.P,U6,13*%
%TO.N,Ci*%
X200880000Y-73380000D03*
%TO.P,U6,14,VCC*%
%TO.N,+5V*%
X198340000Y-73380000D03*
%TD*%
D11*
%TO.P,U1,1*%
%TO.N,Net-(R8-Pad1)*%
X222800000Y-93620000D03*
D12*
%TO.P,U1,2*%
%TO.N,Net-(R9-Pad1)*%
X225340000Y-93620000D03*
%TO.P,U1,3*%
%TO.N,Net-(U1-Pad3)*%
X227880000Y-93620000D03*
%TO.P,U1,4*%
%TO.N,Net-(R6-Pad1)*%
X230420000Y-93620000D03*
%TO.P,U1,5*%
%TO.N,Net-(R7-Pad1)*%
X232960000Y-93620000D03*
%TO.P,U1,6*%
%TO.N,Net-(U1-Pad6)*%
X235500000Y-93620000D03*
%TO.P,U1,7,GND*%
%TO.N,GND*%
X238040000Y-93620000D03*
%TO.P,U1,8*%
%TO.N,Net-(U1-Pad8)*%
X238040000Y-86000000D03*
%TO.P,U1,9*%
%TO.N,Net-(R4-Pad1)*%
X235500000Y-86000000D03*
%TO.P,U1,10*%
%TO.N,Net-(R5-Pad1)*%
X232960000Y-86000000D03*
%TO.P,U1,11*%
%TO.N,Net-(U1-Pad11)*%
X230420000Y-86000000D03*
%TO.P,U1,12*%
%TO.N,Net-(R2-Pad1)*%
X227880000Y-86000000D03*
%TO.P,U1,13*%
%TO.N,Net-(R3-Pad1)*%
X225340000Y-86000000D03*
%TO.P,U1,14,VCC*%
%TO.N,+5V*%
X222800000Y-86000000D03*
%TD*%
D10*
%TO.P,R13,1*%
%TO.N,Net-(D4-K)*%
X202498300Y-36460000D03*
%TO.P,R13,2*%
%TO.N,GND*%
X202498300Y-46620000D03*
%TD*%
D15*
%TO.P,D2,1,K*%
%TO.N,Net-(D2-K)*%
X225501700Y-51460000D03*
D16*
%TO.P,D2,2,A*%
%TO.N,Net-(D2-A)*%
X225501700Y-54000000D03*
%TD*%
D10*
%TO.P,C4,1*%
%TO.N,Net-(J1-Pin_1)*%
X254920000Y-95000000D03*
%TO.P,C4,2*%
%TO.N,GND*%
X254920000Y-100000000D03*
%TD*%
D19*
%TO.P,SW3,1*%
%TO.N,+5V*%
X224512500Y-128767500D03*
D10*
%TO.P,SW3,2*%
%TO.N,Ci*%
X224512500Y-121147500D03*
%TD*%
%TO.P,R3,1*%
%TO.N,Net-(R3-Pad1)*%
X179517500Y-115080000D03*
%TO.P,R3,2*%
%TO.N,GND*%
X179517500Y-104920000D03*
%TD*%
D20*
%TO.P,J1,1,Pin_1*%
%TO.N,Net-(J1-Pin_1)*%
X247920000Y-123500000D03*
D14*
%TO.P,J1,2,Pin_2*%
%TO.N,GND*%
X253000000Y-123500000D03*
%TD*%
D11*
%TO.P,U5,1*%
%TO.N,Net-(U3-Pad3)*%
X173260000Y-66620000D03*
D12*
%TO.P,U5,2*%
%TO.N,Net-(U5-Pad2)*%
X175800000Y-66620000D03*
%TO.P,U5,3*%
%TO.N,Co*%
X178340000Y-66620000D03*
%TO.P,U5,4*%
%TO.N,Net-(U3-Pad6)*%
X180880000Y-66620000D03*
%TO.P,U5,5*%
%TO.N,Net-(U5-Pad5)*%
X183420000Y-66620000D03*
%TO.P,U5,6*%
%TO.N,Net-(U2-Pad2)*%
X185960000Y-66620000D03*
%TO.P,U5,7,GND*%
%TO.N,GND*%
X188500000Y-66620000D03*
%TO.P,U5,8*%
%TO.N,Net-(U2-Pad5)*%
X188500000Y-59000000D03*
%TO.P,U5,9*%
%TO.N,Net-(U3-Pad8)*%
X185960000Y-59000000D03*
%TO.P,U5,10*%
%TO.N,Net-(U5-Pad10)*%
X183420000Y-59000000D03*
%TO.P,U5,11*%
%TO.N,Net-(U2-Pad10)*%
X180880000Y-59000000D03*
%TO.P,U5,12*%
%TO.N,Net-(U3-Pad11)*%
X178340000Y-59000000D03*
%TO.P,U5,13*%
%TO.N,Net-(U5-Pad13)*%
X175800000Y-59000000D03*
%TO.P,U5,14,VCC*%
%TO.N,+5V*%
X173260000Y-59000000D03*
%TD*%
D21*
%TO.P,D6,1,K*%
%TO.N,Ci*%
X172880000Y-52500000D03*
D10*
%TO.P,D6,2,A*%
%TO.N,Net-(D6-A)*%
X180500000Y-52500000D03*
%TD*%
%TO.P,R7,1*%
%TO.N,Net-(R7-Pad1)*%
X205267500Y-115080000D03*
%TO.P,R7,2*%
%TO.N,GND*%
X205267500Y-104920000D03*
%TD*%
D19*
%TO.P,SW1,1*%
%TO.N,+5V*%
X173892500Y-128767500D03*
D10*
%TO.P,SW1,2*%
X176432500Y-128767500D03*
%TO.P,SW1,3*%
X178972500Y-128767500D03*
%TO.P,SW1,4*%
X181512500Y-128767500D03*
%TO.P,SW1,5*%
%TO.N,Net-(R2-Pad1)*%
X181512500Y-121147500D03*
%TO.P,SW1,6*%
%TO.N,Net-(R4-Pad1)*%
X178972500Y-121147500D03*
%TO.P,SW1,7*%
%TO.N,Net-(R6-Pad1)*%
X176432500Y-121147500D03*
%TO.P,SW1,8*%
%TO.N,Net-(R8-Pad1)*%
X173892500Y-121147500D03*
%TD*%
%TO.P,C2,1*%
%TO.N,+5V*%
X203460000Y-97500000D03*
%TO.P,C2,2*%
%TO.N,GND*%
X208460000Y-97500000D03*
%TD*%
%TO.P,R5,1*%
%TO.N,Net-(R5-Pad1)*%
X192392500Y-115080000D03*
%TO.P,R5,2*%
%TO.N,GND*%
X192392500Y-104920000D03*
%TD*%
%TO.P,R1,1*%
%TO.N,Ci*%
X224580000Y-115080000D03*
%TO.P,R1,2*%
%TO.N,GND*%
X224580000Y-104920000D03*
%TD*%
D21*
%TO.P,C1,1*%
%TO.N,+5V*%
X235885000Y-109327500D03*
D10*
%TO.P,C1,2*%
%TO.N,GND*%
X238385000Y-109327500D03*
%TD*%
D19*
%TO.P,SW2,1*%
%TO.N,+5V*%
X199892500Y-128767500D03*
D10*
%TO.P,SW2,2*%
X202432500Y-128767500D03*
%TO.P,SW2,3*%
X204972500Y-128767500D03*
%TO.P,SW2,4*%
X207512500Y-128767500D03*
%TO.P,SW2,5*%
%TO.N,Net-(R3-Pad1)*%
X207512500Y-121147500D03*
%TO.P,SW2,6*%
%TO.N,Net-(R5-Pad1)*%
X204972500Y-121147500D03*
%TO.P,SW2,7*%
%TO.N,Net-(R7-Pad1)*%
X202432500Y-121147500D03*
%TO.P,SW2,8*%
%TO.N,Net-(R9-Pad1)*%
X199892500Y-121147500D03*
%TD*%
D22*
%TO.N,Net-(R2-Pad1)*%
X177452800Y-89861100D03*
%TO.N,Net-(U5-Pad13)*%
X181718700Y-60818400D03*
%TO.N,Net-(U2-Pad2)*%
X203747400Y-77362800D03*
%TO.N,Net-(U1-Pad3)*%
X204679400Y-77808900D03*
%TO.N,Net-(R5-Pad1)*%
X224033500Y-84968700D03*
%TO.N,Net-(D4-A)*%
X223557600Y-63689200D03*
%TO.N,+5V*%
X217235100Y-66025000D03*
%TO.N,GND*%
X185638600Y-107243000D03*
%TD*%
D23*
%TO.N,Net-(D6-A)*%
X170420000Y-42420000D02*
X170420000Y-39500000D01*
X180500000Y-52500000D02*
X170420000Y-42420000D01*
%TO.N,Net-(R3-Pad1)*%
X177014400Y-112576900D02*
X179517500Y-115080000D01*
X177014400Y-92070100D02*
X177014400Y-112576900D01*
X175800000Y-90855700D02*
X177014400Y-92070100D01*
X175800000Y-86000000D02*
X175800000Y-90855700D01*
%TO.N,Net-(R2-Pad1)*%
X178340000Y-88973900D02*
X178340000Y-86000000D01*
X177452800Y-89861100D02*
X178340000Y-88973900D01*
%TO.N,Net-(D5-K)*%
X189769000Y-37691000D02*
X191000000Y-36460000D01*
X189769000Y-48920600D02*
X189769000Y-37691000D01*
X191006700Y-50158300D02*
X189769000Y-48920600D01*
X191006700Y-51460000D02*
X191006700Y-50158300D01*
%TO.N,Net-(D4-K)*%
X203732400Y-37694100D02*
X202498300Y-36460000D01*
X203732400Y-48930900D02*
X203732400Y-37694100D01*
X202505000Y-50158300D02*
X203732400Y-48930900D01*
X202505000Y-51460000D02*
X202505000Y-50158300D01*
%TO.N,Net-(D3-K)*%
X212718900Y-37737800D02*
X213996700Y-36460000D01*
X212718900Y-48873800D02*
X212718900Y-37737800D01*
X214003400Y-50158300D02*
X212718900Y-48873800D01*
X214003400Y-51460000D02*
X214003400Y-50158300D01*
%TO.N,Net-(D2-K)*%
X226729100Y-37694100D02*
X225495000Y-36460000D01*
X226729100Y-48930900D02*
X226729100Y-37694100D01*
X225501700Y-50158300D02*
X226729100Y-48930900D01*
X225501700Y-51460000D02*
X225501700Y-50158300D01*
%TO.N,Net-(U5-Pad5)*%
X183420000Y-66620000D02*
X183420000Y-68221700D01*
X211040000Y-81000000D02*
X211040000Y-79398300D01*
X211031200Y-79389500D02*
X211040000Y-79398300D01*
X194587800Y-79389500D02*
X211031200Y-79389500D01*
X183420000Y-68221700D02*
X194587800Y-79389500D01*
%TO.N,Net-(U5-Pad13)*%
X183635100Y-62734800D02*
X181718700Y-60818400D01*
X196916500Y-62734800D02*
X183635100Y-62734800D01*
X205960000Y-71778300D02*
X196916500Y-62734800D01*
X205960000Y-73380000D02*
X205960000Y-71778300D01*
%TO.N,Net-(U5-Pad10)*%
X202403400Y-60601700D02*
X213580000Y-71778300D01*
X183420000Y-60601700D02*
X202403400Y-60601700D01*
X183420000Y-59000000D02*
X183420000Y-60601700D01*
X213580000Y-73380000D02*
X213580000Y-71778300D01*
%TO.N,Net-(U3-Pad6)*%
X184690000Y-90748300D02*
X185960000Y-92018300D01*
X184690000Y-72031700D02*
X184690000Y-90748300D01*
X180880000Y-68221700D02*
X184690000Y-72031700D01*
X180880000Y-66620000D02*
X180880000Y-68221700D01*
X185960000Y-93620000D02*
X185960000Y-92018300D01*
%TO.N,Net-(U3-Pad3)*%
X178340000Y-93620000D02*
X178340000Y-92018300D01*
X176751100Y-90429400D02*
X178340000Y-92018300D01*
X176751100Y-89570600D02*
X176751100Y-90429400D01*
X177070000Y-89251700D02*
X176751100Y-89570600D01*
X177070000Y-70430000D02*
X177070000Y-89251700D01*
X173260000Y-66620000D02*
X177070000Y-70430000D01*
%TO.N,Net-(U3-Pad11)*%
X179610000Y-83128300D02*
X180880000Y-84398300D01*
X179610000Y-62940000D02*
X179610000Y-83128300D01*
X178340000Y-61670000D02*
X179610000Y-62940000D01*
X178340000Y-59000000D02*
X178340000Y-61670000D01*
X180880000Y-86000000D02*
X180880000Y-84398300D01*
%TO.N,Net-(U2-Pad10)*%
X208500000Y-73380000D02*
X208500000Y-71778300D01*
X180892600Y-59000000D02*
X180880000Y-59000000D01*
X183725800Y-61833200D02*
X180892600Y-59000000D01*
X198554900Y-61833200D02*
X183725800Y-61833200D01*
X208500000Y-71778300D02*
X198554900Y-61833200D01*
X232960000Y-59000000D02*
X232960000Y-57398300D01*
X208500000Y-73380000D02*
X208500000Y-74981700D01*
X224836800Y-57398300D02*
X232960000Y-57398300D01*
X224070000Y-58165100D02*
X224836800Y-57398300D01*
X224070000Y-60881800D02*
X224070000Y-58165100D01*
X215433200Y-69518600D02*
X224070000Y-60881800D01*
X215433200Y-74534400D02*
X215433200Y-69518600D01*
X214384200Y-75583400D02*
X215433200Y-74534400D01*
X209101700Y-75583400D02*
X214384200Y-75583400D01*
X208500000Y-74981700D02*
X209101700Y-75583400D01*
%TO.N,Net-(U2-Pad2)*%
X223721500Y-65001500D02*
X225340000Y-66620000D01*
X221995500Y-65001500D02*
X223721500Y-65001500D01*
X216636600Y-70360400D02*
X221995500Y-65001500D01*
X216636600Y-75032600D02*
X216636600Y-70360400D01*
X214882400Y-76786800D02*
X216636600Y-75032600D01*
X204323400Y-76786800D02*
X214882400Y-76786800D01*
X203747400Y-77362800D02*
X204323400Y-76786800D01*
%TO.N,Net-(U1-Pad11)*%
X229113600Y-61835300D02*
X227880000Y-60601700D01*
X229113600Y-83091900D02*
X229113600Y-61835300D01*
X230420000Y-84398300D02*
X229113600Y-83091900D01*
X230420000Y-86000000D02*
X230420000Y-84398300D01*
X227880000Y-59000000D02*
X227880000Y-60601700D01*
%TO.N,Net-(U1-Pad8)*%
X236770000Y-61871700D02*
X235500000Y-60601700D01*
X236770000Y-83128300D02*
X236770000Y-61871700D01*
X238040000Y-84398300D02*
X236770000Y-83128300D01*
X238040000Y-86000000D02*
X238040000Y-84398300D01*
X235500000Y-59000000D02*
X235500000Y-60601700D01*
X214135100Y-74981700D02*
X211040000Y-74981700D01*
X214831500Y-74285300D02*
X214135100Y-74981700D01*
X214831500Y-64864200D02*
X214831500Y-74285300D01*
X222917700Y-56778000D02*
X214831500Y-64864200D01*
X234879700Y-56778000D02*
X222917700Y-56778000D01*
X235500000Y-57398300D02*
X234879700Y-56778000D01*
X235500000Y-59000000D02*
X235500000Y-57398300D01*
X211040000Y-73380000D02*
X211040000Y-74981700D01*
%TO.N,Net-(U1-Pad3)*%
X222800000Y-69720000D02*
X222800000Y-66620000D01*
X214711100Y-77808900D02*
X222800000Y-69720000D01*
X204679400Y-77808900D02*
X214711100Y-77808900D01*
%TO.N,Net-(D1-K)*%
X235715500Y-37737800D02*
X236993300Y-36460000D01*
X235715500Y-48873800D02*
X235715500Y-37737800D01*
X237000000Y-50158300D02*
X235715500Y-48873800D01*
X237000000Y-51460000D02*
X237000000Y-50158300D01*
%TO.N,Ci*%
X200880000Y-73380000D02*
X200880000Y-71778300D01*
X224580000Y-121080000D02*
X224580000Y-115080000D01*
X224512500Y-121147500D02*
X224580000Y-121080000D01*
X225340000Y-59000000D02*
X225340000Y-60601700D01*
X200880000Y-73380000D02*
X200880000Y-74981700D01*
X194027400Y-64925700D02*
X200880000Y-71778300D01*
X184696800Y-64925700D02*
X194027400Y-64925700D01*
X179610000Y-59838900D02*
X184696800Y-64925700D01*
X179610000Y-58163900D02*
X179610000Y-59838900D01*
X173946100Y-52500000D02*
X179610000Y-58163900D01*
X172880000Y-52500000D02*
X173946100Y-52500000D01*
X216034900Y-69906800D02*
X225340000Y-60601700D01*
X216034900Y-74783500D02*
X216034900Y-69906800D01*
X214633300Y-76185100D02*
X216034900Y-74783500D01*
X202083400Y-76185100D02*
X214633300Y-76185100D01*
X200880000Y-74981700D02*
X202083400Y-76185100D01*
%TO.N,Net-(R9-Pad1)*%
X213452900Y-119769600D02*
X218142500Y-115080000D01*
X201270400Y-119769600D02*
X213452900Y-119769600D01*
X199892500Y-121147500D02*
X201270400Y-119769600D01*
%TO.N,Net-(R8-Pad1)*%
X174334600Y-94694600D02*
X173260000Y-93620000D01*
X174334600Y-120705400D02*
X174334600Y-94694600D01*
X173892500Y-121147500D02*
X174334600Y-120705400D01*
X208848000Y-117937000D02*
X211705000Y-115080000D01*
X196821800Y-117937000D02*
X208848000Y-117937000D01*
X192406900Y-122351900D02*
X196821800Y-117937000D01*
X175096900Y-122351900D02*
X192406900Y-122351900D01*
X173892500Y-121147500D02*
X175096900Y-122351900D01*
%TO.N,Net-(R7-Pad1)*%
X232960000Y-93620000D02*
X232960000Y-95221700D01*
X232358300Y-95823400D02*
X232960000Y-95221700D01*
X224524100Y-95823400D02*
X232358300Y-95823400D01*
X205267500Y-115080000D02*
X224524100Y-95823400D01*
%TO.N,Net-(R6-Pad1)*%
X230420000Y-93620000D02*
X230420000Y-95221700D01*
X223990900Y-95221700D02*
X230420000Y-95221700D01*
X209212600Y-110000000D02*
X223990900Y-95221700D01*
X203910000Y-110000000D02*
X209212600Y-110000000D01*
X198830000Y-115080000D02*
X203910000Y-110000000D01*
X196973000Y-116937000D02*
X198830000Y-115080000D01*
X180880000Y-116937000D02*
X196973000Y-116937000D01*
X180880000Y-93620000D02*
X180880000Y-116937000D01*
X176669500Y-121147500D02*
X176432500Y-121147500D01*
X180880000Y-116937000D02*
X176669500Y-121147500D01*
%TO.N,Net-(R5-Pad1)*%
X184690000Y-107377500D02*
X192392500Y-115080000D01*
X184690000Y-91894700D02*
X184690000Y-107377500D01*
X183420000Y-90624700D02*
X184690000Y-91894700D01*
X183420000Y-86000000D02*
X183420000Y-90624700D01*
X224768200Y-87601700D02*
X232960000Y-87601700D01*
X224033500Y-86867000D02*
X224768200Y-87601700D01*
X224033500Y-84968700D02*
X224033500Y-86867000D01*
X232960000Y-86000000D02*
X232960000Y-87601700D01*
%TO.N,Net-(R4-Pad1)*%
X185960000Y-86000000D02*
X185960000Y-87601700D01*
X235500000Y-86000000D02*
X235500000Y-87601700D01*
X187230000Y-101529300D02*
X195239200Y-109538500D01*
X187230000Y-88871700D02*
X187230000Y-101529300D01*
X185960000Y-87601700D02*
X187230000Y-88871700D01*
X195239200Y-113976000D02*
X195239200Y-109538500D01*
X192922500Y-116292700D02*
X195239200Y-113976000D01*
X187167700Y-116292700D02*
X192922500Y-116292700D01*
X185955000Y-115080000D02*
X187167700Y-116292700D01*
X234898300Y-88203400D02*
X235500000Y-87601700D01*
X225770200Y-88203400D02*
X234898300Y-88203400D01*
X219316700Y-94656900D02*
X225770200Y-88203400D01*
X219316700Y-99025400D02*
X219316700Y-94656900D01*
X212220400Y-106121700D02*
X219316700Y-99025400D01*
X198656000Y-106121700D02*
X212220400Y-106121700D01*
X195239200Y-109538500D02*
X198656000Y-106121700D01*
%TO.N,Net-(J1-Pin_1)*%
X253500000Y-96420000D02*
X254920000Y-95000000D01*
X253500000Y-107960000D02*
X253500000Y-96420000D01*
%TO.N,Net-(D4-A)*%
X224886700Y-65018300D02*
X223557600Y-63689200D01*
X227880000Y-65018300D02*
X224886700Y-65018300D01*
X227880000Y-66620000D02*
X227880000Y-65018300D01*
%TO.N,Net-(D2-A)*%
X234641700Y-54000000D02*
X238040000Y-57398300D01*
X225501700Y-54000000D02*
X234641700Y-54000000D01*
X238040000Y-59000000D02*
X238040000Y-57398300D01*
%TO.N,+5V*%
X222800000Y-86000000D02*
X222800000Y-87601700D01*
X207512500Y-128767500D02*
X204972500Y-128767500D01*
X204972500Y-128767500D02*
X202432500Y-128767500D01*
X202432500Y-128767500D02*
X199892500Y-128767500D01*
X207512500Y-128767500D02*
X224512500Y-128767500D01*
X181512500Y-128767500D02*
X178972500Y-128767500D01*
X178972500Y-128767500D02*
X176432500Y-128767500D01*
X176432500Y-128767500D02*
X173892500Y-128767500D01*
X181512500Y-128767500D02*
X199892500Y-128767500D01*
X235885000Y-117395000D02*
X235885000Y-109327500D01*
X224512500Y-128767500D02*
X235885000Y-117395000D01*
X198340000Y-73380000D02*
X198340000Y-74981700D01*
X201887200Y-78528900D02*
X198340000Y-74981700D01*
X213233900Y-78528900D02*
X201887200Y-78528900D01*
X214784300Y-80079300D02*
X213233900Y-78528900D01*
X214784300Y-87601700D02*
X214784300Y-80079300D01*
X213358300Y-87601700D02*
X214784300Y-87601700D01*
X203460000Y-97500000D02*
X213358300Y-87601700D01*
X214784300Y-87601700D02*
X222800000Y-87601700D01*
X222658400Y-60601700D02*
X222800000Y-60601700D01*
X217235100Y-66025000D02*
X222658400Y-60601700D01*
X222800000Y-59000000D02*
X222800000Y-60601700D01*
%TO.N,GND*%
X253000000Y-110000000D02*
X250960000Y-107960000D01*
X253000000Y-123500000D02*
X253000000Y-110000000D01*
X250960000Y-107960000D02*
X247367500Y-104367500D01*
X238040000Y-93620000D02*
X238040000Y-95221700D01*
X242870800Y-100052500D02*
X238040000Y-95221700D01*
X247367500Y-100052500D02*
X242870800Y-100052500D01*
X247367500Y-104367500D02*
X247367500Y-100052500D01*
X247367500Y-100052500D02*
X247420000Y-100000000D01*
X243345000Y-104367500D02*
X247367500Y-104367500D01*
X238385000Y-109327500D02*
X243345000Y-104367500D01*
X233977500Y-104920000D02*
X224580000Y-104920000D01*
X238385000Y-109327500D02*
X233977500Y-104920000D01*
X204163400Y-92018300D02*
X188500000Y-92018300D01*
X213580000Y-82601700D02*
X204163400Y-92018300D01*
X213580000Y-81000000D02*
X213580000Y-82601700D01*
X188500000Y-93620000D02*
X188500000Y-92018300D01*
X239280700Y-48907400D02*
X236993300Y-46620000D01*
X239280700Y-63777600D02*
X239280700Y-48907400D01*
X238040000Y-65018300D02*
X239280700Y-63777600D01*
X238040000Y-66620000D02*
X238040000Y-65018300D01*
X224580000Y-104920000D02*
X218142500Y-104920000D01*
X205267500Y-104920000D02*
X211705000Y-104920000D01*
X198830000Y-104920000D02*
X205267500Y-104920000D01*
X192392500Y-104920000D02*
X198830000Y-104920000D01*
X185955000Y-106926600D02*
X185955000Y-104920000D01*
X185638600Y-107243000D02*
X185955000Y-106926600D01*
%TD*%
M02*
